<?xml version="1.0" encoding="utf-8"?>
<!-- Generator: Adobe Illustrator 17.1.0, SVG Export Plug-In . SVG Version: 6.00 Build 0)  -->
<!DOCTYPE svg PUBLIC "-//W3C//DTD SVG 1.1//EN" "http://www.w3.org/Graphics/SVG/1.1/DTD/svg11.dtd">
<svg version="1.1" id="Layer_1" xmlns="http://www.w3.org/2000/svg" xmlns:xlink="http://www.w3.org/1999/xlink" x="0px" y="0px"
	 viewBox="506 0 518 626" enable-background="new 506 0 518 626" xml:space="preserve">
<g>
	<g>
		<g>
			<g id="XMLID_9_">
				<path fill="#FFFFFF" d="M995.6,12.4c0,123.8,0,248.5,0,372.8l0,0c-2.4,51-17,88.8-39.7,119.1c-17,23.1-37.8,42-61.4,58.1
					c-3.8,2.8-8,5.2-12.3,7.6c-4.3,2.4-8.5,4.7-12.8,7.1c-27.9,15.1-59.1,27.4-95.4,34c-1.9,0.5-2.4,0-4.3,0
					c-29.8-5.2-54.8-14.6-78.9-26c-18-8.5-35.4-18-50.1-29.3c-30.7-23.1-55.7-50.1-72.8-86.5c-10.4-22.7-17.5-49.1-19.4-80.3
					c-0.5-6.1-0.5-12.8-0.5-19.8c0-119.1,0-238.6,0-358.1c111.5,0,223,0,334.5,0c37.3,0,74.2,0,111.5,0c0,0,0.5,0,0.9,0
					C995.6,11.5,995.6,11.5,995.6,12.4z M990.9,370.6c0-118.1,0-236.2,0-353.9c-4.3-0.5-9.4,0-14.2,0c-140.8,0-282.5,0-422.8,0
					c0,0,0,0,0,0.5c0,118.1,0,236.2,0,353.9c0,8.5,0,16.5,0.5,24.6c0.5,7.6,1.4,15.1,2.8,22.7c9.9,56.7,39.2,95.9,76.1,126.1
					c9.4,7.6,19.4,14.6,29.8,20.8c21.3,12.8,43.9,23.1,69.4,31.7c11.8,3.8,24.6,7.6,37.8,9.4c0.9,0,1.9,0.5,2.8,0.5s1.9-0.5,2.4-0.5
					c13.2-2.4,26-5.7,37.8-9.4c25.5-8.5,48.2-19.4,69.4-31.7c5.2-3.3,10.4-6.1,15.6-9.9c4.7-3.8,9.4-7.1,14.2-10.9
					c36.9-30.7,66.1-69.4,76.1-126.1c1.4-7.1,2.4-14.6,2.8-22.7C990.9,387.1,990.9,379.1,990.9,370.6z"/>
				<path fill="#FFFFFF" d="M986.6,202.8c0.5,6.1-1.9,10.4-4.7,13.7c-3.3,3.3-6.6,5.7-12.8,6.1c-6.1,0.5-10.9-1.9-13.7-4.7
					c-3.3-2.8-5.7-6.6-6.1-12.3c-0.5-6.1,1.9-10.4,4.7-13.7c1.4-1.4,2.8-2.8,5.2-4.3c1.9-0.9,4.7-1.9,7.6-1.9
					c6.1-0.5,10.9,1.9,13.7,4.7C983.8,193.9,986.2,197.6,986.6,202.8z M974.3,217.5c4.7-2.4,9-6.6,8.5-13.2c0-5.2-2.4-8.5-4.7-10.9
					c-2.4-2.4-6.6-4.3-11.8-3.8c-3.8,0.5-6.1,1.4-8,3.3c-2.4,1.9-3.8,3.8-4.7,6.1c-1.4,2.8-1.4,6.6-0.5,9.4
					C955.4,216.1,964.9,222.2,974.3,217.5z"/>
				<path fill="#FFFFFF" d="M986.2,298.3c0.5,6.1-1.9,10.4-4.7,13.7c-3.3,3.3-7.1,5.2-12.8,5.7c-6.1,0.5-10.4-1.9-13.7-4.7
					c-3.3-2.8-5.7-6.6-6.1-12.3c-0.5-6.1,1.9-10.4,4.7-13.7c1.4-1.4,2.8-2.8,5.2-4.3c1.9-0.9,4.7-1.9,7.6-1.9
					c5.7-0.5,10.9,1.9,13.7,4.7C983.3,288.8,986.2,292.6,986.2,298.3z M981.9,304.9c1.9-4.3,1.4-10.4-1.4-14.2
					c-2.4-3.3-7.1-6.6-14.2-6.1c-4.7,0.5-7.6,2.4-9.9,4.7c-2.4,2.4-4.3,5.7-4.3,10.4c0,5.7,2.8,9,6.1,11.3c3.8,2.4,9,3.8,14.2,2.4
					C976.7,312,980.5,309.1,981.9,304.9z"/>
				<path fill="#FFFFFF" d="M986.2,148c-0.5,0.9,0.5,2.8,0,3.8c0,0.5-1.4,0.9-2.4,1.4c-4.7,2.8-10.4,6.6-15.1,9.4
					c0.5-5.2-0.9-8.5-3.8-10.4c-3.3-1.9-8-0.5-9.4,1.9c-2.4,2.8-1.4,8-1.9,13.2c10.9,0,21.7,0,32.6,0c0,0.9,0,2.4,0,3.3
					c-11.8,0-24.1,0-35.9,0c0.5-6.1-0.9-11.8,0.9-15.6c1.4-3.8,4.7-6.6,9.4-7.1c6.1-0.5,10.9,2.8,11.3,8.5
					C976.7,154.2,981.4,150.4,986.2,148z"/>
				<path fill="#FFFFFF" d="M986.2,354.5c0,0.9,0,2.4,0,3.8c-11.8,0-24.1,0-35.9,0c0-0.9,0-2.4,0-3.8c5.2,0,10.9,0,16.1,0
					c0-5.7,0-11.3,0-17c-5.2,0-10.9,0-16.1,0c0-0.9,0-2.4,0-3.3v-0.5c11.8,0,24.1,0,35.9,0c0,0.9,0,2.4,0,3.8c-5.7,0-10.9,0-16.1,0
					c0,5.7,0,11.3,0,17C974.8,354.5,980.5,354.5,986.2,354.5z"/>
				<path fill="#FFFFFF" d="M985.7,238.3c0,1.4,0,2.8,0,4.3c-10.4,6.6-21.3,13.2-31.7,19.8c10.4,0,21.3,0,31.7-0.5
					c0,0.9,0,2.4,0,3.8c-11.8,0-24.1,0-35.9,0c0.5-0.9-0.5-2.8,0-4.3c0-0.5,1.4-0.9,1.9-1.4c9.9-6.1,20.3-12.3,29.8-18.4
					c-10.4,0-21.3,0.5-31.7,0.5c0-0.9,0-2.4,0-3.3v-0.5C962.1,238.3,973.9,238.3,985.7,238.3z"/>
				<path fill="#FFFFFF" d="M985.2,390.9c-0.5,5.2-0.9,10.9-1.9,16.1c-11.8-1.4-23.6-2.4-35.9-3.8c0-0.9,0.5-2.4,0.5-3.8
					c10.9,1.4,21.7,2.4,32.1,3.3c0.5-4.3,0.9-8.5,1.4-12.8C983.3,390.4,984.3,390.9,985.2,390.9z"/>
				<path fill="#FFFFFF" d="M980,29c1.9,1.9,1.4,6.6,1.4,10.9c0,4.7,0.5,9.9-2.4,11.8c-1.9,1.4-5.7,0.9-7.1-0.5
					c-1.9-1.9-1.4-7.6-1.4-10.9c0-6.1-0.5-11.8,5.2-12.3C977.2,27.6,979.1,28,980,29z M979.1,45c0-3.3,0-6.6,0-9.9
					c0-2.8-0.5-5.2-3.3-4.3c-1.9,0.5-2.4,2.4-2.4,4.7c0,1.4,0,3.3,0,5.2c0,2.8-0.5,8,0.9,9c0.9,0.5,2.8,0.5,3.3,0
					C978.6,48.4,979.1,46.5,979.1,45z"/>
				<path fill="#FFFFFF" d="M977.6,423.5c0.9,0.5,2.4,0.5,3.3,0.9c-1.4,6.1-3.3,11.8-4.7,18c-11.3-3.3-23.1-6.1-34.5-9.4
					c1.4-6.1,3.3-11.8,4.7-18c0.9,0.5,2.4,0.5,3.3,0.9c-1.4,4.7-2.4,9.9-3.8,14.6c3.8,0.9,8,2.4,12.3,3.3c1.4-4.7,2.4-9.9,4.3-14.6
					c0.9,0.5,2.4,0.5,3.3,0.9c-1.4,4.7-2.4,9.4-3.8,14.6c3.8,1.4,8,2.4,12.3,3.3C975.3,433.4,976.2,428.2,977.6,423.5z"/>
				<path fill="#FFFFFF" d="M967.7,51.7c-0.9,0-1.9,0-2.8,0c-0.9-2.8,0.5-9.4-2.4-10.9c-0.9-0.5-1.9,0-3.3,0c0,3.8,0,7.1,0,10.9
					c-0.9,0-1.9,0-2.4,0c0-8,0-16.1,0-24.1c3.8,0.5,7.6-0.9,9.4,1.4c2.4,2.4,1.9,10.4-2.4,10.4C969.1,39.8,966.3,47.9,967.7,51.7z
					 M964.4,37c0.9-1.4,0.9-4.7-0.5-5.7c-0.9-0.9-2.8-0.5-4.7-0.9c0,0,0,0,0,0.5c0,2.4,0,5.2,0,7.6C961.6,38.4,963.5,38.9,964.4,37z
					"/>
				<path fill="#FFFFFF" d="M962.5,474.5c-0.5,1.4-1.4,2.4-1.9,3.8c-12.3,0.5-24.6,1.4-37.3,1.9c9,5.2,18.4,9.9,27.9,15.1
					c-0.5,0.9-0.9,1.9-1.4,2.8c-10.4-5.7-20.8-11.8-31.2-17.5c0.9-0.9,1.4-2.4,1.9-3.8c12.3-0.5,24.6-1.4,37.3-1.9
					c-9-5.2-18.4-9.9-27.9-15.1c0.5-0.9,0.9-2.4,1.9-2.8C941.3,463.2,951.7,468.8,962.5,474.5z"/>
				<path fill="#FFFFFF" d="M954,51.7c-0.9,0-1.9,0-2.8,0c-0.5-1.9-0.5-3.3-0.9-5.2c-1.4,0-3.3,0-5.2,0c-0.5,1.9-0.5,3.8-0.9,5.7
					c-0.9,0-1.9,0-2.4,0c1.4-8,2.8-16.1,4.3-24.1c0.9,0,2.4,0,3.3,0C951.2,36.1,952.6,44.1,954,51.7z M946,43.6c1.4,0,2.8,0,4.3,0
					c-0.9-4.3-1.4-8.5-2.4-12.8C947.4,35.1,946.5,39.4,946,43.6z"/>
				<path fill="#FFFFFF" d="M941.3,334.2c0,13.7,0,27.4,0,41.1c0,6.6-0.5,13.2-0.9,19.8c-0.5,6.1-1.4,12.3-2.8,18
					c-0.9,5.7-2.4,11.3-4.3,16.5c-3.3,10.4-7.6,20.3-12.8,28.8c-15.1,26-36.4,46.3-61.4,61.9c-12.3,8-26.5,15.1-40.6,21.3
					c-13.2,5.7-27.4,10.4-42.5,14.2c-1.4,0.5-3.3,0.9-4.3,0.9c-0.9,0-2.8-0.5-4.3-0.9c-9.4-2.4-19.4-5.2-27.9-8.5
					c-30.2-10.9-57.2-25.5-79.4-44.4c-22.2-19.4-40.6-42-50.1-73.2c-4.7-15.6-7.6-33.5-7.6-54.3c0-103,0-206,0-309.4c0,0,0,0,0-0.5
					c56.2,0,112.4,0,168.7,0c56.2,0,112.4-0.5,168.7,0c0.5,0,0.9,0,0.9,0c0.5,0,0,0,0.5,0.5c0.5,1.4,0,3.3,0,5.2
					C941.3,159.4,941.3,246.8,941.3,334.2z M937.5,386.6c0.5-4.7,0.5-9.9,0.5-14.6c0-99.7,0-199.8,0-300c-2.8,2.4-5.7,5.7-8.5,8.5
					c-12.8,12.8-25,25-37.3,37.3c-1.4,1.4-2.8,2.8-4.3,4.3c-4.3,6.1-8,12.8-12.3,18.9c-0.5,0.5-0.9,0.9-0.5,1.4
					c18.4,4.7,36.9,9,55.3,13.7c-17.5,3.8-35.4,8-52.9,11.8c4.7,8.5,9.9,16.5,14.6,25c-8.5-5.2-17-10.4-25.5-15.1
					c-4.7,18.4-9,37.3-13.7,55.7c-4.3-18.9-9-37.3-13.7-55.7c-6.1,3.3-11.8,7.6-17.5,10.9c-2.8,1.9-4.7,4.7-7.1,7.1
					c-68.5,68.5-136.1,137-204.6,205.5c-0.9,0.9-1.4,1.4-1.4,1.9c0,0.9,0.5,1.9,0.5,3.3c0.5,3.3,0.9,6.6,1.9,9.4
					c4.7,20.8,12.8,37.3,22.7,52.4c4.3,5.7,9,11.3,13.7,16.5c9.4,10.4,20.3,19.8,32.1,27.9s24.6,15.1,38.3,21.7
					c15.6,7.1,32.1,13.2,49.6,17.5c1.9,0.5,4.3,1.4,6.1,0.9c28.3-6.6,53.4-17.5,75.1-29.8c12.8-7.1,24.6-15.6,35-25
					c10.9-9.4,20.3-19.8,28.3-31.7c8-11.8,14.6-25.5,18.9-41.1c2.4-7.6,3.8-16.1,5.2-24.6C936.5,396.1,937,391.3,937.5,386.6z
					 M933.2,70.1C933.2,70.1,933.7,70.1,933.2,70.1c-0.5-0.9-3.3-0.5-4.7-0.5c-107.2,0-215,0-321.7,0c0,0,0,0,0,0.5
					c0,95.4,0,191.3,0,287.2c0,13.7-0.5,27.4,0.9,40.2c0.5,0,0.5-0.5,0.9-0.5c69-69,137.5-138.4,206.5-207.4
					c0.9-0.9,2.4-2.4,3.3-3.8c1.9-2.8,3.8-5.7,5.2-8.5c1.4-2.4,3.3-5.2,4.7-7.6c0-0.5,0.5-0.5,0.5-0.9c-18-4.3-36.4-8-54.8-12.3
					c18.9-4.3,37.8-9,56.2-13.2c-5.2-9-10.9-18-16.1-26.9c7.6,4.7,16.1,9.4,23.6,13.7c0.5,0.5,0.9,0.9,1.4,0.9
					c4.3-16.5,8.5-33.5,12.8-50.1c4.3,17,8.5,34,13.2,50.6c5.2-2.8,9.9-6.1,15.1-9c0.9-0.5,1.9-0.9,2.4-1.4c0.9-0.5,1.4-1.4,1.9-1.9
					c10.9-10.9,21.3-21.7,32.1-32.1C922.8,80.5,928.5,75.8,933.2,70.1z M855.3,154.6c18.9,0,37.8,0,56.7,0
					c-15.1-3.3-30.2-7.1-45.8-10.9c-3.3,2.8-7.1,7.1-10.4,10.4C855.8,154.2,855.3,154.2,855.3,154.6z M884.1,182.5
					C884.6,183,884.6,183,884.1,182.5c-2.8-4.7-5.7-9.9-9-14.6c-1.4,0.5-2.8,0.5-4.3,0.9C875.1,173.5,879.9,178.3,884.1,182.5z
					 M867.6,137.6c4.7-4.3,9.9-9.4,14.2-14.2c-5.2,3.3-10.4,6.1-15.1,9.4C867.1,134.8,867.6,136.2,867.6,137.6z M865.2,173.1
					c0.5-0.9,0.9-2.4,0.5-2.8c0-0.9-1.9-2.4-2.4-2.8c-2.8-2.8-5.7-5.2-8-8l0,0c0,18.9,0,37.8,0,56.2
					C858.1,201.9,861.9,187.2,865.2,173.1z M852.9,150.9c0-0.5,0-2.4,0-3.3c0-18,0-35.4,0-52.9c-1.9,7.6-3.3,14.6-5.7,22.7
					c-1.4,6.6-3.3,13.2-4.7,19.8c0,0.9-0.9,2.4-0.9,2.8c0,0.9,1.9,2.4,2.8,2.8c2.8,2.4,4.7,5.2,7.6,7.6
					C852.5,150.9,852.9,151.3,852.9,150.9z M847.7,156.1c0.5-0.5,0.9-0.5,0.5-0.5c-0.5-0.5-2.4,0-3.3,0c-18,0-35.4,0-52.9,0
					c13.7,3.3,28.8,6.6,42.5,9.9c0.9,0,2.4,0.9,2.8,0.5c0.9,0,2.4-1.9,2.8-2.8C842.5,161.3,844.9,158.9,847.7,156.1z M837.3,140.9
					c0-0.5,0.9-1.4,0.5-2.4c0-0.5-1.4-1.4-1.9-1.9c-4.7-4.7-9.4-9.4-13.7-13.7c3.8,6.1,7.6,12.8,11.8,18.9
					C835,141.4,835.9,141.4,837.3,140.9z M838.3,174.5c-0.5-1.4-0.9-3.3-1.4-4.7c-0.9,0.5-1.4,0.9-1.9,1.9c-4.3,4.3-9,9-13.2,13.2
					C827.4,181.1,833.1,177.8,838.3,174.5z"/>
				<path fill="#FFFFFF" d="M939.9,28c0,0.9,0,1.9,0,2.8c-1.4,0-2.8,0-4.3,0c0,7.1,0,14.2,0,21.3c-0.9,0-1.9,0-2.4,0
					c0-7.1,0-14.2,0-21.3c-1.4,0-2.8,0-4.3,0c0-0.9,0-1.9,0-2.8C932.3,28,936.1,28,939.9,28z"/>
				<path fill="#FFFFFF" d="M936.1,509.9c0.5,0.5,0.9,0.9,0.9,1.4c-4.3,4.3-8.5,9-12.8,13.2c-8-7.6-16.1-15.6-24.6-23.1
					c-0.5-0.5-1.4-1.4-1.4-1.4c0-0.5,0.9-0.9,1.4-1.4c3.8-3.8,7.6-8,11.3-11.8c0.5,0.5,0.9,0.5,1.4,1.4c0.5,0.5,1.4,0.9,1.4,0.9
					c0,0.5-0.9,0.9-1.4,1.4c-2.8,2.8-6.1,6.6-9,9.4c2.4,2.4,5.2,4.7,8,7.6c0.5,0.5,0.9,0.9,0.9,0.9c0.5,0,2.4-2.4,2.8-2.8
					c2.4-2.4,4.3-4.3,6.6-6.6c0.5-0.5,0.9-1.4,1.4-1.4c0,0,0.9,0.9,1.4,0.9c0.5,0.5,0.9,0.9,1.4,1.4c-2.8,3.3-6.1,6.1-9,9.4
					c-0.5,0.5-1.4,0.9-1.4,1.4c0,0.5,0.9,0.9,0.9,0.9c2.4,2.4,4.7,4.3,7.1,6.6l0.9,0.9c0.5,0,2.4-2.4,2.4-2.8
					c2.4-2.4,4.3-4.3,6.6-6.6c0.5-0.5,0.9-1.4,1.4-1.4C935.1,508.5,936.1,509.9,936.1,509.9z"/>
				<path fill="#FFFFFF" d="M926.2,49.3c0,0.9,0,1.9,0,2.4c-2.8,0-5.7,0-8.5,0c0-8,0-16.1,0-24.1c2.8,0,5.7,0,8.5,0
					c0,0.9,0,1.9,0,2.8c-1.9,0-3.8,0-6.1,0c0,2.4,0,5.2,0,7.6c1.9,0,3.8,0,5.7,0c0,0.9,0,1.9,0,2.4c-1.9,0-3.8,0-5.7,0
					c0,2.8,0,5.7,0,8C921.9,49.3,924.3,49.3,926.2,49.3z"/>
				<path fill="#FFFFFF" d="M914.8,51.7c-0.9,0-1.9,0-2.8,0c-0.9-2.8,0.5-9.4-2.4-10.9c-0.9-0.5-1.9,0-3.3,0c0,3.3,0,7.1,0,10.9
					c-0.9,0-1.9,0-2.8,0c0-8,0-16.1,0-24.1c3.8,0.5,7.1-0.9,9.4,0.9c2.4,2.4,1.9,10.4-2.4,10.9C915.8,39.8,913.4,47.9,914.8,51.7z
					 M911,37.5c0.9-1.4,0.9-4.7,0-6.1c-0.9-0.9-2.8-0.5-4.7-0.9c0,0,0,0,0,0.5c0,2.4,0,5.2,0,7.6C908.2,38,910.1,38.9,911,37.5z"/>
				<path fill="#FFFFFF" d="M904.4,339.4c0,4.7-2.4,7.6-5.2,9.9c-1.4,8-3.8,15.1-8.5,19.8c3.3,8,6.1,16.5,6.1,27.4
					c0.5,10.9-1.4,19.8-4.3,27.9c0,0.5-0.5,0.9-0.5,1.4c0,0.5,0.5,1.4,0.9,1.9c1.9,3.8,4.3,8,5.7,12.3c1.9,4.7,3.8,9.9,3.8,16.5
					c0.5,10.4-3.3,17.5-10.4,20.8c-1.9,0.9-3.8,1.4-6.1,1.4c-0.9,0-1.9,0-2.4,0.5c-0.5,0-0.5,0.9-0.9,1.4c-1.9,2.8-6.6,5.7-12.3,4.3
					c-4.7-1.4-8-5.2-8.5-10.9c-2.8-1.9-5.2-3.8-7.6-5.7c-9,4.7-19.4,7.6-32.1,8c-12.8,0.5-23.1-2.4-32.1-6.1c-0.5,0-1.4-0.9-1.9-0.9
					s-1.9,1.4-2.4,1.9c-5.2,4.3-12.3,8-21.3,9c-2.8,0.5-5.7,0-8-0.5c-8-0.5-12.3-5.2-14.6-11.3c-5.2-0.9-9.4-4.7-9.4-11.3
					c0-6.1,4.3-9.9,9.4-10.9c1.4-5.2,3.8-10.4,6.1-15.6c0.5-0.9,0.9-1.4,0.9-1.9s-0.9-2.8-1.4-3.3c-1.4-3.3-2.4-7.1-3.3-10.9
					c-0.9-5.2-1.4-10.9-1.4-17c0-12.3,3.3-21.3,7.1-30.2c0-0.5-0.5-0.9-0.9-1.4c-4.3-5.2-7.6-11.3-8-20.8c-0.5-3.3-0.5-6.6,0.5-9.9
					c0.9-3.3,2.8-6.1,5.2-8.5s5.7-3.8,9-4.3c1.4-5.2,4.7-9,10.4-9.4c3.8-0.5,6.6,0.9,9,2.8c1.9,1.9,3.3,4.7,3.8,8
					c4.7,1.4,9,2.8,13.2,4.3c4.3-1.9,9-3.3,13.7-4.3c9.9-1.9,22.7-1.4,32.1,0.5c3.3,0.9,7.1,1.9,10.4,3.3c0.9,0.5,2.4,1.4,3.3,1.4
					c0.5,0,1.9-0.9,2.8-1.4c6.1-3.3,13.2-6.1,21.3-7.6c10.9-1.9,20.3,0.9,23.1,9C902.1,331.8,904.4,334.6,904.4,339.4z M885.5,475
					c10.4,0,14.6-8.5,13.7-18.9c-0.9-10.4-5.2-17.5-8.5-24.6c-7.1,15.1-17.5,26.5-31.7,35c1.4,1.4,2.8,2.4,4.7,3.8
					c1.9-3.8,5.2-7.1,11.3-6.6C881.3,463.2,885,468.4,885.5,475z M895,350.7c-7.1,0.5-12.3-3.8-12.8-9.9
					c-0.5-7.1,4.3-11.8,10.9-12.3c-2.8-2.8-7.6-3.8-12.8-3.8c-9.4,0.5-17,4.3-24.1,7.6c14.2,7.6,25,18.9,32.6,33.1
					C891.7,361.1,893.6,356.4,895,350.7z M889.8,421.1c2.8-8.5,3.8-19.4,2.8-29.3c-0.9-9.9-4.3-18.4-7.6-25.5
					c-7.6-14.6-18.9-25.5-33.5-32.6c-8.5,4.7-16.1,9.4-23.6,15.1C852.5,369.6,873.2,393.2,889.8,421.1z M886.9,428.7
					c0.5-0.9,0.9-1.9,0.9-2.4c0-0.5-0.9-1.9-1.4-2.8c-1.4-2.8-3.3-5.7-4.7-8c-15.6-24.6-35-46.3-57.2-63.8
					c-5.2,4.3-10.9,8.5-16.1,13.2c-0.5,0.5-0.9,0.9-0.9,0.9c1.4,0,4.3-0.5,3.8,0.9c0.9,0,1.4,0.5,0.9,1.4h0.5c0,0.9,0,2.4,0,3.3h0.5
					c0,0.9,0.5,1.4,0.9,1.4c0,0.9,0,1.9,0,2.8h0.5c0,0.9,0,1.4,0,2.4h-0.5c0,0.5,0,0.9,0,1.9c0,0.5,0.9,0.5,0.9,0.9
					c1.9,0,0.9,2.4,0.9,3.8c2.4,0,4.7-0.5,6.6,0c0,0.5,0,0.5,0,0.5c3.8,0.9,8,0,12.3,0c0,0.5,0.5,0.9,0.5,0.9h0.5v0.5
					c0.9,0,0.9,0.9,2.4,0.5c0,0.5,0,0.5,0,0.9c0.9,0.9,1.9,0.9,2.4,1.9h0.5c0,0.9,0.5,0.9,0.5,0.9c2.4,0,5.2-0.5,7.6,0v0.5
					c0.5,0,0.9,0,0.9,0c0,0.5,0,0.9,0.5,1.4c0,0.5,0.5,0,0.9,0.5v0.5c0.9,0,1.4,0.9,0.9,1.9h0.5c0,0.5,0,0.9,0,1.9
					c0.5,0.5,0.5,0.5,0.9,0.5c0,0.5,0.5,0.5,0.5,0.5v0.5c0.9,0,0.5,0.9,0.9,0.9c0.5,1.4,1.9,1.4,2.4,2.8c0.9,0,1.4,0,1.9,0.5
					c0,1.9,1.4,2.4,2.4,3.3c1.9,0,3.8,0.9,5.7,0.9c0,0.5,0,0.9,0,1.4h0.5c0,1.4,0,2.4,0,3.8c-1.9,0.5-2.4,2.4-4.7,2.8
					c-0.9,0.9-1.9,1.9-2.8,2.8c0,1.4-1.4,0.9-0.9,2.4c-0.5,0-0.5,0-0.9,0.5c-0.5,1.4-1.4,2.4-2.8,2.8c0-0.5,0.5-0.5,0-0.9
					c-0.5,0.5-0.5,0.5-0.5,0.9c-0.5,0-0.5,0-0.9,0c-0.5,1.4-2.8,0.5-2.8,2.4c-0.9,0-1.4,0-1.4,0.5c0,0.5,0,0.9,0,0.9h-0.5
					c0,0.9,0,1.9,0,2.8h-0.5c0,0.9,0,0.9-0.5,1.4c0,0.5,0,0.9,0,1.4c-0.9,0-0.5,0.9-0.9,0.5c0,0.9,0,0.9-0.5,1.4
					c-0.5,0.9-2.4,0.9-1.9,2.4c-0.9,0-1.4,0-1.4,0.5c0,0.5,0,0.9-0.5,1.4c-0.5,0.5-1.4,0-1.9,0.9c0.5,1.9-1.4,1.4-2.4,2.4
					c0,0.9,0,1.4-0.5,1.9c-1.9-0.5-1.4,1.4-2.4,2.4c-0.5,0-0.9,0.5-1.4,0.5c-0.5,0.5,0,1.9-0.9,1.9s-1.4,0-1.4,0.5s0,0.9,0,0.9h-0.5
					c-0.5,2.4,0,5.2,0,8c-0.5,0-0.9,0.5-1.4,0.5v-0.5c-0.5,0.5-0.5,0.9-0.5,1.4h-0.5c0,0.9-0.9,0.9-0.9,1.4c0,2.8,0,5.7,0,8.5
					c14.6-2.4,26-7.6,35.9-15.6C875.1,449,882.2,440,886.9,428.7z M841.1,335.6c1.9-0.9,3.8-2.4,5.7-3.8c-7.6-2.8-17.5-5.2-27.9-4.7
					c-7.6,0.5-14.6,1.4-20.8,3.8c9.9,4.3,18.4,9.9,26.5,16.1C829.8,343.2,835.4,339.4,841.1,335.6z M826,472.1
					c0-1.9-0.5-3.8-0.5-5.2c-0.5-0.5-1.9-0.5-2.8-0.5c0-0.5,0-0.9,0-0.9h0.5c0-0.5,0-0.9,0-1.4c-0.9-0.5-1.9-0.9-1.4-2.4
					c-0.5,0-0.5,0-0.5,0c-0.5-1.9,0-3.8,0-5.7c-0.9-0.5-1.4-0.9-0.9-1.9h-0.5c0-0.9,0-1.4,0-2.4h0.5c0-0.9,0-1.4,0-2.4
					c0.5,0,0.5-0.9,0.9-0.5c-0.5-2.4,0.9-2.4,2.4-2.8c0-0.5,0-0.9,0-1.4h0.5c0.5-2.8,0-6.1,0-9c0-4.3,0.9-9.9,0-14.2
					c0-0.5-0.5,0-0.5,0c0-2.4-1.9-2.4-2.8-3.3l0,0c-0.5-0.5-0.9-0.9-1.4-1.4c0,0,0.9-0.5,0.5-0.5c-1.9,0.5-2.4-0.9-2.8-1.9
					c0.5,0,0.9,0.5,0.9,0c-1.4,0-2.4-0.5-2.4-1.9c0,0-0.9,0-0.9-0.5s0-0.5,0-0.9c-0.5,0-0.5,0-0.5,0c0-2.4,0-5.2,0-7.6h0.5
					c0-1.4,0-2.8,0-4.7c0.9,0,0.5-0.5,1.4-0.5c0.5-0.5,0.5-0.9,0.5-1.4c0.5,0,0.5,0,0.5,0c-0.5-2.4,1.4-6.6-2.4-5.7
					c0-0.5-0.5-0.9-0.9-0.9s-0.5,0-0.9,0v-0.5c-0.5,0-0.9,0-0.9,0c0-0.5,0-0.9,0-0.9h-0.5c0-0.9,0-1.9,0-2.8c-1.9,0-3.8,0.5-5.7,0
					c-0.5,0,0-0.9-0.5-0.5c-0.5,0-0.9,0-1.4,0c-0.9-1.4-2.8-0.9-4.7-1.4c1.4,0,2.4-0.5,3.8-0.5l0,0c-3.3,0-7.1,0.9-9.9,0
					c0,0,0-0.9-0.5-0.5c-14.2,14.2-26.9,29.8-37.3,48.2c5.2,11.8,13.2,21.3,23.6,28.8C790.1,466.9,805.2,473.5,826,472.1z
					 M820.3,417.3c0.5,0,0.5,0.5,0.9,0.5C820.8,417.3,820.3,416.9,820.3,417.3z M812.3,356.4c2.8-2.4,6.1-4.7,9-7.1
					c-7.6-5.7-15.6-10.9-24.6-14.6c-0.9-0.5-3.3-1.9-4.3-1.4c-0.5,0-1.4,0.5-2.4,0.9c-17,8-29.8,21.7-36.9,39.2
					c-2.4,6.6-4.3,13.7-4.7,21.7c-0.5,10.9,0.9,21.3,4.3,29.3c9.4-17,21.7-31.2,35-44.9c-0.5,0-0.9,0-0.9,0v-0.5
					c-2.4,0.5-1.9-0.9-2.4-1.9c-0.5,0-0.9,0-1.9,0c-0.5-0.5-0.9-1.4-1.4-1.9c0-0.5,0-0.9,0-0.9h-0.5c0-0.5-0.5-0.9-0.5-1.4
					c-0.5,0-0.9,0.5-1.9,0.5c-0.5,0-0.9-0.5-1.4,0c0,0.5,0.9,0,0.5,0.9h0.5c0,0.9,0,1.9,0,2.8h0.5c0,0.9,0,1.4,0,2.4
					c-0.9-0.5-2.4-0.5-2.8-1.4c-0.5-0.9,0.5-2.4-0.5-3.3c-0.5,0-0.9,0-1.4,0v-0.5c-0.9,0-1.9,0-1.4-0.9h-0.5v-0.5
					c-0.9-0.5-1.9-0.5-2.8-0.5c-0.5,0,0,0.5,0,0.5l-0.5-0.5l0,0c0-0.5,0.5-0.9,0.9-1.4c-0.5-0.5-0.5-1.4-0.5-2.4c0-0.5-0.5,0-0.5,0
					c0-0.9,0-1.4,0-2.4c-1.9,0-3.8,0.9-5.7,0c0.9-0.9,1.9-1.9,2.8-2.4c0.9,0,1.9,0,2.8,0c0-1.9,0.5-3.3,0.5-5.2c0.5,0,0.5,0,0.9,0
					c0-1.4-0.5-3.3,0-4.3c0.5,0,0.5,0,0.5,0c0-1.4,1.4-0.9,1.9-2.4c0.5,0,0.9,0,1.4,0c0.5,0,0-0.5,0-0.5c0.9,0,1.4,0,2.4,0v-0.5
					c1.4,0,2.4,0,3.8,0c0,0.5,0,0.5,0,0.5c0.5,0,0.9,0,1.4,0v0.5c0.9,0,1.9,0,2.4,0c0,0.5,0,0.5,0,0.5c0.9,0,2.4,0,3.3,0
					c0.5,1.4,3.3,0.9,5.2,1.4v0.5c1.9-0.5,1.4,0.9,2.4,1.9c0.9,0,1.4,0,1.4,0.5c-0.5,1.4,1.9,0.9,2.4,1.9c0,0.5,0,0.9,0,1.4
					c0.5,0,0.9,0,1.4,0c0-0.9,0.5-1.4,0.9-0.9v-0.5c0.5,0,0.9,0,0.9-0.5c0.9,0,1.9-0.5,2.4-0.9C806.6,356.9,809.5,356.9,812.3,356.4
					z M807.6,360.6c-0.9,0-2.4,0-3.3,0v0.5c-0.5,0-0.9,0-1.4,0c-0.5,0.9-1.9,1.4-2.8,1.9c0,0.9-0.9,0.5-0.5,0.9
					c-0.9,0-1.4,0-1.4,0.5c0,0.9,0,1.9-1.4,1.9c-0.9,0.5-0.5,1.9-0.5,2.8c0.5,0,0.5,0,0.5,0.5c0.5,0,0.5,0.5,0.9,0.5
					C800.5,366.8,804.3,363.5,807.6,360.6z M805.7,367.7c0.5,0,0.9-0.5,0.5-0.5C806.2,367.2,805.7,367.2,805.7,367.7z M803.3,370.1
					c0.5,0,1.4-0.5,0.9-0.9C803.8,369.6,803.3,369.6,803.3,370.1z M802.4,372.4c0-0.5,0-1.4,0-1.9c-0.9,0.9-1.9,1.4-2.4,2.8l0,0
					c0,0.5,0.5,0.5,0.5,0.9c0.9,0,1.4,0,1.9-0.5c0-0.5,0-0.9,0-0.9C802.4,372.4,802.4,372.4,802.4,372.4z M775,474
					c3.8-1.4,7.6-3.8,9.9-6.1c-14.6-7.6-25.5-18.9-33.1-33.5c-1.9,3.8-3.8,8-5.2,12.8c4.7,1.4,8.5,4.7,9,10.4
					c0.5,6.1-3.3,10.4-8.5,11.8c1.4,3.3,3.8,5.7,7.6,6.6c1.4,0.5,2.4,0.5,4.3,0.5c0.9,0,1.4,0.5,2.4,0.5
					C766.5,476.9,770.7,475.4,775,474z M786.8,330.9c-2.8-0.9-5.7-1.9-8.5-2.8c-1.9,4.3-5.2,7.6-10.9,7.6c-5.7,0-9.9-3.8-10.9-9l0,0
					c-4.7,1.4-9.4,4.7-10.4,9.4c-0.5,1.9-0.5,4.3-0.5,6.1c0,8.5,2.8,16.5,7.6,20.8C761.3,349.3,772.1,338.4,786.8,330.9z
					 M776.4,366.8c0-1.4,0-2.8-0.5-4.3h-0.5c0-0.9,0-2.4,0-3.3c-0.5-0.5-1.4-0.5-2.4-0.5c0,0.5,0,0.9,0,1.9h-0.5c0,0.9,0,1.9,0,2.8
					h0.5c0,0.9,0,1.4,0,2.4C774.5,365.8,775.4,366.3,776.4,366.8z M775.4,372v-0.5c-0.5,0-0.5,0-0.9,0.5
					C775.4,371.5,775.4,371.5,775.4,372z M775,370.1c0.5,0,0.5,0,0.5,0H775L775,370.1z"/>
				<path fill="#FFFFFF" d="M900.6,49.3c0,0.9,0,1.9,0,2.4c-2.8,0-5.7,0-8.5,0c0-8,0-16.1,0-24.1c2.8,0,5.7,0,8.5,0
					c0,0.9,0,1.9,0,2.8c-1.9,0-3.8,0-6.1,0c0,2.4,0,5.2,0,7.6c1.9,0,3.8,0,5.7,0c0,0.9,0,1.9,0,2.4c-1.9,0-3.8,0-5.7,0
					c0,2.8,0,5.7,0,8C896.4,49.3,898.8,49.3,900.6,49.3z"/>
				<path fill="#FFFFFF" d="M892.1,551.5c-0.9,0.9-1.9,1.4-2.8,1.9c-2.4-3.8-5.2-7.1-7.6-10.9c-7.6-3.8-15.1-7.6-22.7-11.3
					c0.9-0.9,2.4-1.4,3.3-2.4c6.1,3.3,12.3,6.6,18.4,9.9c-0.9-5.7-1.9-11.8-2.8-18c0-0.9-0.5-1.9-0.5-2.4c0-0.5,2.8-1.9,2.8-2.4l0,0
					c1.4,6.6,2.4,14.6,3.3,21.7c0,0.9,0,2.4,0.5,2.8c0.5,0.9,1.4,1.9,1.9,2.8C888.4,546.3,890.2,549.1,892.1,551.5z"/>
				<path fill="#FFFFFF" d="M888.4,39.4c0,5.2,0.5,10.4-2.8,12.3c-2.4,0.9-6.1,0-7.1-1.9c-0.5-0.9-0.5-1.9-0.9-2.8
					c-0.5-5.7,0.5-13.2,0-18.9c0,0,0,0,0-0.5c0.9,0,1.4,0,2.4,0c0,3.8,0,7.6,0,11.3c0,3.3-0.9,9,1.4,9.9c0.5,0.5,1.4,0.5,2.4,0
					c2.4-0.9,1.4-6.6,1.4-9.9c0-4.3,0-8,0-11.3c0.9,0,1.9,0,2.4,0C888.4,31.3,888.4,35.6,888.4,39.4z"/>
				<path fill="#FFFFFF" d="M875.6,49.3c0,0.9,0,1.9,0,2.8c-3.8-0.5-8.5,1.4-10.9-0.5c-1.9-1.9-1.4-7.1-1.4-10.9
					c0-6.1-0.5-12.3,5.2-12.8c6.6-0.5,5.7,5.7,5.7,12.3c0,3.8,0,7.1-1.4,9C873.7,49.3,874.7,49.3,875.6,49.3z M871.3,42.2
					c0-2.8,0.5-5.2,0-8.5c0-2.4-1.4-3.3-3.3-3.3c-1.9,0.5-2.4,2.8-2.4,4.7c0,1.4,0,3.3,0,4.7c0,2.8-0.5,7.6,0.9,9
					c0.9,0.5,2.4,0.5,3.3,0C871.8,48.4,871.3,45,871.3,42.2z"/>
				<path fill="#FFFFFF" d="M854.3,49.3c0,0.9,0,1.9,0,2.4c-2.8,0-5.7,0-8.5,0c0-8,0-16.1,0-24.1c2.8,0,5.7,0,8.5,0
					c0,0.9,0,1.9,0,2.8c-1.9,0-3.8,0-6.1,0c0,2.4,0,5.2,0,7.6c1.9,0,3.8,0,5.7,0c0,0.9,0,1.9,0,2.4c-1.9,0-3.8,0-5.7,0
					c0,2.8,0,5.7,0,8C850.1,49.3,852,49.3,854.3,49.3z"/>
				<path fill="#FFFFFF" d="M843.5,553.9c2.8,3.3,5.2,8.5,4.7,14.2c-0.9,11.3-11.3,13.7-18.9,18.4c-5.7-10.4-11.3-20.8-17.5-31.2
					c2.8-1.4,5.7-2.8,8-4.7c3.3-1.9,6.6-3.8,11.3-3.3C836.9,547.2,841.1,550.6,843.5,553.9z M844.4,567.6c0.5-4.7-1.9-9-4.3-11.8
					c-2.4-2.8-5.7-5.7-10.4-5.7c-2.8,0-5.2,1.4-7.6,2.4c-2.4,0.9-4.3,2.4-6.1,3.3c3.3,6.1,7.1,12.8,10.9,18.9
					c0.9,2.4,2.4,4.3,3.8,6.1C836.4,578,843.9,576.1,844.4,567.6z"/>
				<path fill="#FFFFFF" d="M840.6,29.5c2.4,2.4,1.4,7.6,1.4,11.3c0,4.3,0.5,9-2.4,10.9c-2.4,0.9-5.7,0-8.5,0.5c0-8,0-15.6,0-23.6
					c0,0,0,0,0-0.5C835,28,838.3,27.6,840.6,29.5z M839.7,39.4c0-3.3,0.5-7.1-0.9-8.5c-0.9-0.9-2.8-0.5-4.3-0.5c0,0,0,0,0,0.5
					c0,6.1,0,12.3,0,18.4c1.4,0,3.3,0.5,4.3-0.5C840.2,47.9,839.7,43.2,839.7,39.4z"/>
				<path fill="#FFFFFF" d="M832.6,461.3C833.1,461.7,832.6,461.7,832.6,461.3C832.6,461.7,832.6,461.3,832.6,461.3z"/>
				<path fill="#FFFFFF" d="M822.2,51.7c-0.9,0-1.9,0-2.8,0c0-1.9-0.5-3.8-0.9-5.7c-1.9,0-3.3,0-5.2,0c-0.5,1.9-0.5,3.8-0.9,5.7
					c-0.9,0-1.4,0-2.4,0c1.4-8,2.8-16.1,4.3-24.1c0.9,0,2.4,0,3.3,0C819.4,36.1,820.8,44.1,822.2,51.7z M813.7,43.6
					c1.4,0,2.8,0,4.3,0c-0.5-4.3-1.4-8.5-2.4-12.8C815.1,35.6,814.7,39.4,813.7,43.6z"/>
				<path fill="#FFFFFF" d="M820.3,417.8C820.8,417.8,820.8,417.8,820.3,417.8C820.8,417.8,820.3,417.8,820.3,417.8z"/>
				<path fill="#FFFFFF" d="M820.3,417.3L820.3,417.3L820.3,417.3z"/>
				<path fill="#FFFFFF" d="M816.1,592.1c-0.9,0-2.4,0.5-3.3,0.5c-2.4-3.3-3.8-7.1-6.1-10.4c-5.2,0.9-10.4,1.4-15.6,2.4
					c-0.9,3.8-1.9,8-2.8,11.8c-1.4,0-2.4,0.5-3.8,0.5c2.8-12.8,5.7-25,9-37.3c1.4,0,2.8-0.5,4.3-0.5
					C803.8,569.5,809.9,580.8,816.1,592.1z M791.5,580.8c4.3-0.5,9-1.4,13.2-1.9c-2.8-5.7-6.1-11.3-9.4-17
					C794.3,568,792.9,574.6,791.5,580.8z"/>
				<path fill="#FFFFFF" d="M807.1,28c0,8,0,16.1,0,24.1c-0.9,0-1.4,0-2.4,0c0-7.1,0-13.7,0-20.8c-1.4,6.6-2.4,13.7-3.8,20.8
					c-0.9,0-1.9,0-2.4,0c-0.9-7.1-2.4-13.7-3.8-20.3c0,6.6,0,13.7,0,20.3c-0.9,0-1.4,0-2.4,0c0-8,0-16.1,0-24.1c1.4,0,2.8,0,4.3,0
					c0.9,6.1,2.4,12.8,3.3,18.9c0.9-6.1,2.4-12.8,3.3-18.9C804.3,28,805.7,28,807.1,28z"/>
				<path fill="#FFFFFF" d="M786.8,29c1.9,2.4,1.4,7.1,1.4,10.9c0,4.3,0.5,9.4-2.4,10.9c-1.9,0.9-5.2,0.9-7.1,0
					c-1.9-1.9-1.9-7.1-1.9-11.3c0-6.1-0.5-11.8,5.2-12.3C783.9,27.6,785.8,28,786.8,29z M785.4,46c0-2.4,0-5.2,0-8
					c0-1.9,0.5-6.1-0.9-7.1c-0.5-0.5-1.9-0.5-2.4-0.5c-1.4,0.5-1.9,1.9-2.4,3.3c0,1.9,0,5.2,0,8c0,2.4,0,6.1,0.9,7.1
					c0.5,0.5,1.9,0.5,2.8,0.5C784.9,48.8,785.4,47.4,785.4,46z"/>
				<path fill="#FFFFFF" d="M771.7,566.6c4.3,3.3,7.6,9.9,5.7,18c-1.4,6.6-5.2,11.3-10.9,13.7c-6.6,2.4-14.2-0.9-20.8-1.4
					c2.4-11.8,4.7-23.1,6.6-35c0,0,0,0,0-0.5C759.4,562.8,766.9,562.8,771.7,566.6z M773.6,586c1.9-6.1,0.9-12.3-2.8-16.1
					c-3.3-3.3-9.4-3.8-14.6-4.7c-1.9,9.4-3.8,18.9-5.7,28.8c4.3,0.5,8,1.9,12.3,1.9C767.9,595,771.7,590.7,773.6,586z"/>
				<path fill="#FFFFFF" d="M774,28c0,8,0,16.1,0,24.1c-1.4,0-2.8,0-4.3,0c-1.4-6.6-3.3-13.2-4.7-20.3c0,6.6,0,13.7,0,20.3
					c-0.9,0-1.4,0-2.4,0c0-8,0-15.6,0-23.6c0,0,0,0,0-0.5c1.4,0,2.8,0,4.3,0c1.4,7.1,3.3,13.7,4.7,20.3c0-6.6,0-13.7,0-20.3
					C772.1,28,773.1,28,774,28z"/>
				<path fill="#FFFFFF" d="M762.7,162.7c0.5,4.3,0.5,8.5,0.9,12.8c-1.9,0.5-3.8,0-5.7,0c-1.4,2.8-2.4,6.1-3.8,9.4
					c-0.9,0-1.9,0-2.4,0c-0.9-5.7-2.4-10.9-3.3-16.5c-11.3-1.4-23.1-2.8-34.5-4.3c-0.5,2.8-0.9,6.1-1.4,9.4
					c-0.5,3.3-0.9,6.1-1.4,9.4c0,0.5-0.9,1.4-0.5,1.9c0.5,0.5,4.3,0.9,4.7,0.9c3.8,0.5,6.6,0.9,10.4,1.4c1.9,0.5,3.8,0.5,5.2,0.9
					c1.9,0.5,3.8,2.4,4.7,4.3c0.5,0.5,0.9,1.4,0.9,1.9c0,0.9,0,2.4,0,3.8c0,9,0,18.9,0,27.4c0,6.1,0,9.9,2.4,13.2
					c0.9,1.4,2.4,2.8,4.7,3.3c1.9,0.5,4.3,0.9,6.6,1.4c0.5,0.9,0.9,2.4,1.4,3.8c0.5,1.4,0.5,3.3-0.5,3.8c-0.9,0.5-4.3,0-5.7,0
					c-6.1,0-13.2,0-18.9,0c-0.9-1.9-0.9-4.3,0-5.7c0.5-0.5,0.5-0.9,0.9-1.4c0.5-1.9,0.5-4.3,0.5-6.1c0-0.9,0-1.9-0.5-2.8
					s0-1.9-0.5-2.8c-0.5-0.9-0.9-1.9-1.4-2.4c-3.3-5.7-7.6-13.2-5.2-22.7c-8,1.9-15.6,3.8-23.1,5.7c-1.9,5.2-3.3,10.4-4.7,15.1
					c2.4-0.5,5.2,0.9,7.6,1.4c1.9,0.9,3.8,1.4,5.7,1.9c2.8,0.9,7.1,0.5,10.9,0.5c1.4,0,2.8-0.5,3.3,0c0.5,0,0.5,0.5,0.5,0.9
					c0,0.5,0.5,0.9,0.5,0.9c0.5,1.4,0,2.8,0.5,4.3c0,0.9,0.9,2.4,1.4,3.3c1.4,3.3,2.8,7.1,2.4,11.3c-0.5,3.3-1.4,5.7-3.8,7.6
					c-0.5,0.5-1.4,1.4-2.4,1.4c-2.4,0.5-4.3-0.5-6.1,0.5c-0.5,1.4-0.9,3.3-0.9,4.7c-1.9,0-3.3,0-5.2,0c-1.9,0-3.8-0.5-5.2,0
					c-0.9,0-2.8,2.4-3.3,2.8c-0.9,0.9-1.9,1.9-3.3,2.8c-2.4-1.9-4.3-3.8-6.1-5.7c-2.8,0.5-6.1,0.9-9.4,1.4c0-3.3,0-6.6,0-9.9
					c-1.4-0.9-3.3-1.4-5.2-2.4c-0.5-0.5-0.5-0.9-0.9-1.4c0.9-1.9,1.9-3.3,2.4-5.2c-1.4,0-2.4,0-3.8,0c-4.3-5.7-7.6-11.3-11.8-17
					c0.5-0.9,1.4-1.9,2.4-2.8c0.9-0.9,1.9-1.9,2.4-2.4c-0.9-2.4-1.4-4.7-1.9-7.1c2.4-1.9,4.7-3.3,7.1-4.7c0.5-8.5,1.4-17.5,2.4-26
					c0-1.4,0.5-2.8,0.5-3.8c0-0.5-0.9-1.4-1.4-2.4c-1.4-2.4-2.4-4.7-2.4-8c-0.5-5.2,0.5-11.8,1.4-16.5c0.5-1.4,0.9-3.3,1.4-4.3
					c0.5-0.9,1.4-1.4,2.4-2.4c0.9-0.5,1.9-1.4,2.8-1.4c-0.5-1.9,0-3.8-0.9-4.7s-2.8-0.9-4.3-1.4c-0.9-0.5-1.9-1.9-1.9-2.8
					c0-0.9,1.9-2.8,2.4-3.8c0.9-1.4,1.9-2.4,2.4-3.3c0-2.4,0.5-4.3,0-6.6l0,0c-0.9-4.3-1.4-8.5,0-12.3c-6.1,1.9-10.4-1.4-12.8-4.7
					c-2.8,1.4-6.1,2.4-9,0.9c-1.9-0.9-3.3-2.4-4.7-3.8c-0.5-0.5-0.9-0.9-1.4-1.4c-0.5-0.5-1.4-0.5-1.9-0.9
					c-3.3-1.9-7.6-3.8-10.4-6.6c-0.5-0.5-0.9-0.9-1.4-1.4c-0.5-0.5-1.9-0.5-2.8-0.9c-2.4-0.5-3.3-0.9-6.1-1.4c-0.9,0-2.4,0-2.8-0.9
					c-0.5-0.5,0-1.9,0-2.4c8.5-2.4,19.8-0.9,26.9,1.4c1.4-4.3,3.3-7.6,7.6-8.5c4.7-0.9,9.4,0.9,12.3,2.8c4.7,2.8,9.4,6.6,12.8,11.3
					c0.9,1.4,2.4,3.3,2.8,5.2c2.4-1.4,5.2-2.8,7.6-4.3c0.9-0.5,2.4-0.9,2.8-1.4c0.9-0.5,1.4-2.8,1.9-3.8c2.4-3.8,4.7-7.1,7.6-9.9
					c3.8-3.8,8.5-7.1,15.6-7.6c15.1-1.4,18,16.5,13.7,29.8c12.3,2.4,20.3,8.5,25,18.9c2.4,5.2,3.3,12.3,1.9,18.9
					c-1.4,5.7-4.3,10.4-8.5,13.7C754.2,160.3,758.4,161.3,762.7,162.7z M762.2,172.1c0-0.5-0.5-1.4-0.5-1.9
					c-0.5-2.4-0.9-4.3-0.9-6.1c-15.1-4.3-30.2-8.5-44.9-12.8c-1.4,2.4-3.8,5.2-5.7,7.6c-0.9,1.4-1.9,2.8-4.3,2.8
					c-1.4,1.4-0.9,4.3-1.9,6.1c2.8,0,5.2,0,8,0c0.5-1.9,0.9-5.7,2.4-6.1c0.5,0,1.4,0,2.4,0.5c11.3,1.4,23.1,2.8,34,4.7
					c0.9,4.7,1.9,9.4,3.3,13.7c0.9-2.8,1.9-5.7,3.3-8.5c0.9,0,2.8,0.9,3.8,0.9C761.7,173.1,762.2,172.6,762.2,172.1z M757.5,143.3
					c1.4-7.6-0.5-14.6-3.8-19.4c-5.7-9.4-17-16.5-32.6-15.6c-1.9,0-3.8,0.5-5.7,0.9c0,1.4-0.5,2.4-0.5,3.3
					c12.8,1.4,23.6,5.2,29.8,12.8c3.3,3.8,5.7,9.4,4.7,16.1s-3.8,10.9-6.1,15.1c1.4,0.5,3.3,0.9,4.7,1.4
					C752.3,154.2,756.1,149.5,757.5,143.3z M746.2,248.7c1.9,0,4.3,0.5,4.3-1.4c0-1.4-1.9-1.4-3.8-1.4c-4.3,0-7.1,0-10.9,0
					c-1.9,0-4.3-0.5-5.7,0c-0.9,0-0.9,0.9-0.9,1.9c0.5,1.4,2.8,0.9,4.7,0.9C738.6,248.7,741.4,248.7,746.2,248.7z M741.4,244.4
					c-1.9-2.8-4.3-4.7-5.2-8.5s-0.9-8-0.9-13.2c0-6.6,0-13.7,0-20.8c0-2.4,0.5-5.2,0-6.6c-0.5-2.4-2.8-3.8-4.7-4.7
					c-4.3-0.5-8.5-0.9-12.8-1.4c-1.4,1.4-2.8,3.3-4.3,5.2c-0.5,0.5-0.9,1.4-1.4,1.4c-0.5,0-1.4,0-2.4,0.5c-1.4,0-2.8,0.5-4.7,0.5
					c-1.4,1.9-2.4,4.3-3.8,6.1c-3.3,0-7.1,0-10.4,0c-0.9,1.9-1.9,4.3-2.8,6.1c-1.9-0.5-3.3-0.9-5.2-1.4c-0.5,0.9-0.9,2.4-1.4,3.3
					c-2.4,1.4-4.7,2.8-7.1,4.7c-0.5,0.5-1.9,0.9-2.4,1.4c0,0.5,0,0.9,0,1.9c-0.5,4.3-0.5,9-0.9,12.8c-0.5,4.3-1.4,11.3,1.9,13.2
					c1.4,0.9,3.3,0.5,5.2,0c3.3-0.5,6.6-0.9,9.9-1.4c8-0.9,19.8-3.3,26,0.9c1.4,0.9,2.8,2.4,3.8,3.8c0.9,0.9,2.4,4.3,3.3,4.3
					c0.5,0,0.9-0.9,1.4-1.9c0.5-1.4-0.5-2.8-0.9-3.3c-3.3-4.3-12.3-4.3-11.8-12.3c-7.1-0.5-10.9-3.8-17.5-4.7c-0.9,0-1.9,0-2.4-0.5
					c-0.5-1.9,0.5-3.3,0.9-4.7c1.4-4.7,2.8-9.4,4.3-13.7c8-1.9,16.1-3.8,23.6-5.7c0.9-0.5,2.4-0.9,3.3-0.5c0.9,0,1.4,1.4,1.4,2.4
					c0,0.5-0.5,0.9-0.5,1.4c0,0.5-0.5,0.9-0.5,1.4c-1.9,7.6,1.4,13.7,4.3,18.4c0.5,0.9,1.4,1.4,1.4,2.4c0.5,1.9,0.5,4.3,0.9,6.6
					c0,2.4,0.5,4.7,0,7.1C733.9,244.4,737.6,244.4,741.4,244.4z M732.9,153.2c1.9-3.3,3.8-7.1,3.8-12.3c0-7.1-3.3-12.3-7.6-15.6
					c-4.3-3.8-9.9-5.7-16.5-6.6c-0.9,0.9-1.4,2.8-2.4,4.3c5.7,1.9,10.4,4.7,13.2,9c2.8,4.3,4.3,11.8,2.8,18.9
					C728.2,151.8,730.6,152.8,732.9,153.2z M720.2,241.6c0-0.9-0.9-1.4-1.4-2.8c-0.5-1.4,0-2.8-0.5-3.8c-0.5-1.4-3.8-1.9-4.7-0.9
					C712.6,239.2,716.4,240.6,720.2,241.6z M718.3,106c0.9-4.7,0.5-11.3-4.7-11.3c-3.3,0-5.2,2.8-6.1,5.2c3.3,0.9,6.1,2.4,6.6,6.1
					C715.4,106,716.9,106,718.3,106z M713.6,147.6c0-7.6-2.4-12.8-6.6-15.6c-0.9,0.9-1.4,1.4-1.9,2.4c1.9,2.8,2.8,6.6,3.3,11.3
					C709.8,146.1,711.7,147.1,713.6,147.6z M707.9,113.1c2.8,0.5,4.3-1.9,4.3-4.7c-0.5-3.3-3.3-5.2-5.7-6.1l0,0
					c-0.5,0.9-0.9,1.4-1.4,2.4c0.9,0.5,2.4,1.4,3.3,2.4c0.9,0.9,1.9,1.9,1.4,3.3c-2.8,0-4.3-1.9-6.1-2.8c-0.5,0.9-0.5,1.4-0.9,1.9
					C703.6,110.7,705,112.6,707.9,113.1z M710.2,172.1c-2.4,0-4.7,0-7.6,0c-0.9,1.9-1.9,3.8-2.4,6.1c2.4,0,5.2,0,7.6,0.5
					C709.3,176.9,710.2,174.5,710.2,172.1z M706.5,157.5c2.4-1.9,4.7-3.8,6.1-7.1c-1.9-1.9-4.7-2.8-8-2.8c-0.9,0.9-2.4,1.4-2.8,2.8
					c-0.5,0.9-0.9,1.9-0.9,2.8c-0.5,0.9-0.9,1.9-1.4,2.4c-2.4,4.3-4.7,8-7.1,12.3c-0.5,0.9-1.4,2.4-1.9,1.9
					c-0.9-0.5-0.5-3.3-0.5-4.3c0-4.7-3.3-8-7.1-9c-0.9,0-2.4,0-2.8-0.5c-1.9-0.9-2.8-2.4-4.7-2.8c-2.4,3.3-3.8,8-3.8,14.2
					c1.9,0.5,5.2-0.5,6.1,0.5c0.5,0.5,0.9,1.9,0.9,2.4c1.9,4.3,4.3,8,7.6,10.9c1.4,0.9,2.8,2.4,4.3,2.8c0.5,0,0.9,0.5,1.4,0.5
					c4.3,0.5,4.7-2.8,6.1-5.7c1.4-4.3,2.4-8.5,3.3-12.8C702.7,162.2,703.2,158.4,706.5,157.5z M706.9,186.3c0.5-0.5,1.4-0.9,1.4-1.9
					c-2.8,0-6.1,0-9,0c-0.5,0-0.5,0.9-0.9,0.9c-0.5,0.5-0.9,0.9-0.5,0.9C700.8,186.3,704.1,186.3,706.9,186.3z M697,121.6
					c3.3,1.9,9.9,1.9,9-3.3c-0.5-2.8-3.3-4.7-6.1-5.2c-0.5,0.9-0.5,1.9-0.9,2.4c0.9,0.5,1.9,0.9,2.8,1.4c0.5,0.5,2.4,1.4,1.9,2.4
					c-0.5,0.9-2.4,0.5-3.3,0c-0.9-0.5-1.9-0.9-2.8-0.9C697.5,119.2,697,120.2,697,121.6z M700.8,147.1c0.9-1.4,2.8-1.9,5.2-1.9
					c0-4.3-1.4-7.6-3.3-10.4c-3.3,0-6.1-0.5-8-1.9l0,0C694.2,140,697,143.8,700.8,147.1z M704.1,129.1c0-3.3-2.8-5.2-7.1-4.7
					c0,0,0,0-0.5,0c-0.5,0.9-0.5,1.4-0.9,2.4c1.9,0,3.3,0.5,4.7,1.4c0.9,0.5,1.9,2.4,0,2.4c-1.9,0.5-3.8-0.9-5.2-0.9
					c0,0.9-0.5,1.9-0.5,2.4C698.4,134.3,704.1,133.9,704.1,129.1z M692.3,161.7c3.3-3.3,5.7-7.6,6.6-12.8c-5.2-2.8-9-10.4-6.1-18.4
					c-1.4-0.5-2.8-1.4-4.3-1.9c-1.4-0.5-3.3-1.4-4.7-1.4c-0.9,0-2.4,0.5-3.8,0.5c-1.4,0-2.4,0-4.3,0c0,2.4,0,4.7,0.5,7.1
					c-0.9,1.4-2.4,3.8-3.8,5.2c-0.5,0.5-0.9,1.4-0.9,1.9c0,1.4,3.8,1.4,5.7,1.9c0,1.4,0.5,2.8,0.9,4.3c0.5,1.4,0.5,2.8,0.9,3.8
					c0,0.5,1.4,1.9,1.9,2.4c1.9,1.4,5.2,0.9,8,0.5c0,0.9,0,1.9,0,2.8C690.9,158.4,691.8,159.8,692.3,161.7z M688,186.3
					c-0.5-0.5-0.9-0.9-1.4-0.9c-0.5-0.5-0.9-0.9-1.4-0.9c-1.4-0.5-3.3,0-4.7,0c-1.9,0-3.3,0-4.7,0c-0.5,0.5-0.5,0.9-0.5,1.4
					c0.5,0.9,1.9,0.9,2.8,0.9C681,186.3,685.2,186.8,688,186.3z M680.5,106c0,0,0.5,0.5,0.9,0.5c-1.4-5.2-4.7-9-8.5-12.3
					s-8-6.1-14.2-6.6c-2.4,0-4.3,1.4-5.7,2.4c-1.4,1.4-2.4,3.3-2.4,5.7c0,4.7,4.3,8.5,9,8c3.8-0.5,5.7-2.8,8-5.2
					C673.4,99.4,676.7,103.2,680.5,106z M672.5,179.2c2.4,0,5.2,0,7.6,0c-1.4-2.4-2.8-4.7-3.8-7.6c-1.4,0-3.3,0-4.7,0c0,0,0,0,0,0.5
					C671.5,174.5,671,177.8,672.5,179.2z M668.2,103.6c2.4,2.4,7.1,4.7,10.9,3.3c-3.3-2.8-6.6-5.7-11.3-7.1
					C665.8,100.8,667.3,102.2,668.2,103.6z"/>
				<path fill="#FFFFFF" d="M758.9,37c0,5.2,0.9,12.8-2.4,14.6c-1.9,0.9-5.7,0.9-7.1-0.5c-1.4-1.9-1.4-6.6-1.4-10.4
					c0-6.6-0.5-12.3,5.2-12.8c0.9,0,2.8,0.5,3.8,0.9C758.9,30.4,758.9,33.7,758.9,37z M756.5,45c0-3.3,0-6.6,0-9.9
					c0-2.8-0.5-5.2-3.3-4.3c-1.9,0.5-2.4,2.4-2.4,4.3c0,1.4,0,3.3,0,5.2c0,2.8-0.5,7.6,0.9,9c0.9,0.9,2.8,0.5,3.3,0
					C756.1,48.4,756.5,46.5,756.5,45z"/>
				<path fill="#FFFFFF" d="M745.7,28c0,0.9,0,1.9,0,2.8c-1.4,0-2.8,0-4.3,0c0,7.1,0,14.2,0,21.3c-0.9,0-1.9,0-2.4,0
					c0-7.1,0-14.2,0-21.3c-1.4,0-2.8,0-4.3,0c0-0.9,0-1.9,0-2.8C738.1,28,741.9,28,745.7,28z"/>
				<path fill="#FFFFFF" d="M731,552.4c5.2,2.4,10.4,4.7,10.4,11.8c0,3.3-1.4,6.6-3.3,8.5c-1.9,1.9-6.1,3.8-9.9,2.4
					c0.9,5.7,1.4,10.9,2.4,16.5c-1.4-0.5-2.4-0.9-3.8-1.9c-0.9-6.6-1.9-13.2-2.4-19.8c1.9,0.5,3.8,1.9,6.1,2.4c4.7,0.5,8-3.3,8-8.5
					c-0.5-6.1-7.6-7.1-11.8-9.4c-4.3,9.9-9,19.8-13.2,29.8c-0.9-0.5-1.9-0.9-3.3-1.4c4.7-10.9,9.4-22.2,14.6-33.1
					C726.3,550.6,728.7,551.5,731,552.4z"/>
				<path fill="#FFFFFF" d="M731.5,39.4c0,4.7,0.5,10.4-2.4,11.8c-1.9,0.9-5.2,0.9-6.6-0.5c-1.9-1.9-1.4-6.6-1.4-10.4
					c0-4.3,0-8,0-12.3c0,0,0,0,0-0.5c0.9,0,1.9,0,2.4,0c0,3.8,0,7.6,0,11.8c0,3.8-0.9,10.9,3.8,9.9c2.4-0.9,1.9-6.1,1.9-9.9
					c0-4.3,0-7.6,0-11.8c0.9,0,1.9,0,2.4,0C731.5,31.3,731.5,35.6,731.5,39.4z"/>
				<path fill="#FFFFFF" d="M717.8,51.7c-0.9,0-1.9,0-2.8,0c0-1.9-0.5-3.3-0.9-5.2c-1.4,0-3.3,0-5.2,0c-0.5,1.9-0.5,3.8-0.9,5.7
					c-0.9,0-1.9,0-2.4,0c1.4-8,2.8-16.1,4.3-24.1c0.9,0,2.4,0,3.3,0C715,36.1,716.4,44.1,717.8,51.7z M709.3,43.6c1.4,0,2.8,0,4.3,0
					c-0.5-4.3-1.4-8.5-2.4-12.8C710.7,35.1,710.2,39.4,709.3,43.6z"/>
				<path fill="#FFFFFF" d="M712.1,545.4c-0.5,0.9-1.4,1.9-1.9,2.8c-4.3-2.4-8.5-5.2-12.8-8c-2.4,3.3-4.3,7.1-6.6,10.9
					c4.3,2.8,8.5,5.2,12.8,8c-0.5,0.9-1.4,1.9-1.9,2.8c-4.3-2.4-8.5-5.2-12.8-8c-2.4,3.3-4.3,7.1-6.6,10.9c4.3,2.8,8.5,5.2,12.8,8
					c-0.5,0.9-0.9,1.9-1.9,2.8c-5.2-3.3-10.4-6.6-15.6-9.9c6.1-10.4,12.8-20.3,18.9-30.2C701.7,538.7,706.9,542.1,712.1,545.4z"/>
				<path fill="#FFFFFF" d="M696.5,33.7c0.5,2.8,0,6.6,0,9.9c0,3.8-0.5,6.6-2.4,7.6c-2.4,0.9-5.7,0-8.5,0.5c0-8,0-15.6,0-23.6
					c0,0,0,0,0-0.5c4.3,0,8-0.5,9.4,1.9C696.1,30.9,696.5,32.3,696.5,33.7z M694.2,39.8c0-2.8,0.5-7.6-0.9-8.5
					c-0.9-0.9-2.8-0.9-4.7-0.9c0,0,0,0,0,0.5c0,6.1,0,12.3,0,18.4c1.4,0,3.8,0,4.7-0.5C694.7,47.4,694.2,43.2,694.2,39.8z"/>
				<path fill="#FFFFFF" d="M682.8,51.7c-0.9,0-1.9,0-2.8,0c-0.5-1.9-0.5-3.3-0.9-5.2c-1.4,0-3.3,0-5.2,0c-0.5,1.9-0.5,3.8-0.9,5.7
					c-0.9,0-1.4,0-2.4,0c1.4-8,2.8-16.1,4.3-24.1c0.9,0,2.4,0,3.3,0C680,36.1,681.4,44.1,682.8,51.7z M674.8,43.6c1.4,0,2.8,0,4.3,0
					c-0.5-4.3-1.4-8.5-2.4-12.8C676.2,35.1,675.3,39.4,674.8,43.6z"/>
				<path fill="#FFFFFF" d="M682.4,528.8c0.9,0.5,1.9,1.4,2.8,1.9c-10.4,7.6-20.8,14.6-31.2,22.2c-0.9-0.5-1.4-0.9-2.4-1.4
					c2.8-12.3,6.1-24.6,9-37.3c0.9,0.5,1.9,1.4,2.8,1.9c-2.4,10.4-5.2,21.3-7.6,31.7C664.4,542.1,673.4,535.4,682.4,528.8z"/>
				<path fill="#FFFFFF" d="M681.9,133.9c0.9,0.5,1.4,2.8,0,3.3c-0.9,0-1.9,0-1.9-1.9c0-0.5,0.5-1.4,0.9-1.4
					C681.4,133.9,681.4,133.9,681.9,133.9z"/>
				<path fill="#FFFFFF" d="M666.3,29.5c2.4,2.4,1.4,7.6,1.4,11.3c0,4.3,0.5,9.4-2.4,10.9c-2.4,0.9-5.7,0-8.5,0.5c0-8,0-15.6,0-23.6
					c0,0,0,0,0-0.5C661.1,28,664.4,27.6,666.3,29.5z M665.4,40.3c0-3.3,0.5-8-0.9-9c-0.9-0.9-2.8-0.5-4.3-0.5c0,0,0,0,0,0.5
					c0,6.1,0,12.3,0,18.4c1.4,0,3.3,0.5,4.3-0.5C665.8,47.9,665.4,43.6,665.4,40.3z"/>
				<path fill="#FFFFFF" d="M665.8,202.4c0.5,8.5-2.8,14.6-7.1,19.4c-4.3,4.3-10.4,8-18,8.5c-8.5,0.5-14.6-2.8-19.4-7.1
					c-4.7-4.3-8-9.9-8.5-18c-0.5-8.5,2.8-15.1,7.1-19.4c4.3-4.3,9.9-8,18-8.5c8.5-0.5,15.1,2.8,19.4,7.1
					C661.6,188.2,665.4,194.3,665.8,202.4z"/>
				<path fill="#FFFFFF" d="M653.6,28c0,8,0,16.1,0,24.1c-0.9,0-1.9,0-2.4,0c0-8,0-15.6,0-23.6c0,0,0,0,0-0.5
					C652.1,28,652.6,28,653.6,28z"/>
				<path fill="#FFFFFF" d="M642.7,27.6c4.3,0,5.2,2.4,5.2,7.1c-0.9,0-1.9,0-2.4,0c0.9-2.8-1.4-6.1-3.8-4.3
					c-0.9,0.9-1.4,2.8-0.9,4.3c0.5,1.4,1.9,2.4,3.8,3.3c1.4,0.9,2.8,1.9,3.3,3.3c1.4,2.8,0.9,7.6-1.4,9.4c-1.4,0.9-4.7,1.4-6.6,0.5
					c-1.9-0.9-2.4-3.8-2.4-7.6c0.9,0,1.9,0,2.4,0c0,2.4,0,4.3,0.9,5.2c1.4,0.9,3.3,0.5,3.8-0.5c0.9-0.9,0.9-3.3,0.5-4.7
					c-0.9-2.4-5.2-3.3-6.6-6.1c-1.9-2.8-0.9-8,1.4-9.4C640.8,28,641.7,27.6,642.7,27.6z"/>
				<path fill="#FFFFFF" d="M634.7,51.7c-0.9,0-1.9,0-2.8,0c-0.5-1.4-0.5-3.3-0.5-5.7c0-3.8-0.5-6.1-5.2-5.2c0,3.8,0,7.1,0,10.9
					c-0.9,0-1.9,0-2.4,0c0-8,0-16.1,0-24.1c3.8,0,8-0.9,9.4,1.9c1.9,2.8,1.4,9.9-2.8,9.9C636.1,39.8,633.2,47.9,634.7,51.7z
					 M630.9,37.5c1.4-1.4,1.4-5.7,0-6.6c-0.9-0.9-2.4-0.5-4.3-0.5c0,0,0,0,0,0.5c0,2.4,0,4.7,0,7.6
					C628.5,38.4,629.9,38.9,630.9,37.5z"/>
				<path fill="#FFFFFF" d="M630.9,485.4c0.9,0.9,2.4,1.9,3.3,2.8c-3.8,12.3-7.6,24.6-11.8,36.4c-0.5,0-0.5-0.5-0.5-0.5
					c-0.9-0.5-1.4-1.4-2.4-1.9c1.4-3.8,2.4-7.6,3.8-11.3c-3.3-2.8-7.1-5.7-10.9-9c-0.5-0.5-1.4-1.4-1.4-1.4l-2.4,1.4
					c-2.4,1.4-5.2,3.3-7.6,4.7c-0.9-0.9-1.9-1.4-2.8-2.4C608.2,498.1,619.5,491.5,630.9,485.4z M624.3,507.6
					c1.9-5.7,4.3-12.3,6.1-18c-5.7,3.3-10.9,6.6-16.5,9.9c2.8,2.4,6.1,5.2,9.4,7.6C623.3,506.6,623.8,507.6,624.3,507.6z"/>
				<path fill="#FFFFFF" d="M621,49.3c0,0.9,0,1.9,0,2.4c-2.8,0-5.7,0-8.5,0c0-8,0-16.1,0-24.1c2.8,0,5.7,0,8.5,0c0,0.9,0,1.9,0,2.8
					c-1.9,0-3.8,0-5.7,0c0,2.4,0,5.2,0,7.6c1.9,0,3.8,0,5.7,0c0,0.9,0,1.9,0,2.4c-1.9,0-3.8,0-5.7,0c0,2.4,0,5.7,0,8
					C616.7,49.3,618.6,49.3,621,49.3z"/>
				<path fill="#FFFFFF" d="M614.8,460.3c0.9,0.9,0.9,1.9,1.9,2.8c-9,5.7-18.4,11.3-27.4,17.5c2.4,3.8,4.3,7.1,6.6,10.9
					c-0.9,0.9-1.9,1.4-2.8,1.9c-2.8-4.7-5.7-9-8.5-13.7C594.5,473.1,604.9,466.5,614.8,460.3z"/>
				<path fill="#FFFFFF" d="M606.8,28c0.9,0,1.9,0,2.4,0c-1.4,8-2.8,16.1-4.3,24.1c-0.9,0-2.4,0-3.3,0c-1.4-8-2.8-16.1-4.3-24.1
					c0.9,0,1.9,0,2.8,0c0.9,6.6,1.9,13.7,2.8,20.3C604.9,41.7,605.8,34.6,606.8,28z"/>
				<path fill="#FFFFFF" d="M603.5,433.9c0.5,0.9,0.9,2.4,0.9,3.3c-11.3,3.3-22.7,7.1-34.5,10.4c0-0.5-0.5-1.4-0.5-1.9
					c0-0.5-0.5-1.4-0.5-1.9c0-0.5,0.9-0.9,1.4-1.9c7.6-8.5,15.6-18,23.1-26.5c-9.9,3.3-19.8,6.6-30.2,9.4c0-0.9-0.9-1.9-0.9-3.3
					c11.3-3.3,22.7-7.1,34-10.4c0.5,0,0.5,0.9,0.9,1.9c0,0.5,0.9,1.4,0.9,1.9c0,0.5-0.9,1.4-1.4,1.9c-7.6,8.5-15.6,18-22.7,26.5
					C583.2,440.5,593.1,437.2,603.5,433.9z"/>
				<path fill="#FFFFFF" d="M595.9,28c0,8,0,16.1,0,24.1c-0.9,0-1.9,0-2.4,0c0-8,0-15.6,0-23.6c0,0,0,0,0-0.5
					C594,28,595,28,595.9,28z"/>
				<path fill="#FFFFFF" d="M595,332.8c0.5,6.1-1.9,10.4-4.7,13.7s-6.6,5.7-12.3,6.1c-5.7,0.5-10.9-1.4-14.2-4.3
					c-3.3-2.8-6.1-6.6-6.1-12.3c-0.5-6.1,1.9-10.9,4.3-13.7c2.8-2.8,7.1-5.7,12.3-6.1c6.1-0.5,10.9,1.4,14.2,4.3
					C591.7,323.3,594.5,327.6,595,332.8z M591.2,338c0.9-3.3,0.5-6.6-0.9-9.9c-2.4-4.7-7.6-9-14.6-8.5c-3.8,0.5-6.6,1.4-9,3.3
					c-2.8,2.4-5.2,5.7-5.7,9.9c-0.5,8,3.8,12.3,8.5,14.6C579.4,352.6,589.3,346,591.2,338z"/>
				<path fill="#FFFFFF" d="M589.3,272.8c3.3,3.3,5.7,7.6,5.7,14.2c-0.5,7.6-4.7,11.8-9.9,14.6c0.5-1.4-0.5-2.8,0-3.8
					c0-0.5,0.9-0.9,1.4-0.9c2.8-2.4,5.7-6.1,5.2-12.3c-0.5-4.3-2.4-7.1-4.7-9.4c-2.4-2.4-6.1-4.3-10.4-4.3c-4.3,0-7.6,1.4-10.4,3.8
					c-2.8,2.4-5.2,6.1-4.7,12.3c0.5,4.3,2.4,7.6,5.2,9.9c0.5,0.5,0.9,0.5,0.9,0.9c0.5,0.9-0.5,2.4,0,3.8c-0.5,0-0.9-0.5-0.9-0.5
					c-5.7-3.3-9.9-10.4-8-19.4c1.4-7.6,8-13.7,16.5-14.2C581.3,266.6,585.5,269.5,589.3,272.8z"/>
				<path fill="#FFFFFF" d="M594.5,185.4c0,8,0.5,16.1-2.4,20.8c-2.8,4.3-8,8-15.6,8c-7.6,0-12.3-3.3-15.6-8
					c-1.4-2.4-2.4-5.7-2.4-9.4c0-3.3,0-7.6,0-11.3c0,0,0,0,0-0.5C570.4,185.4,582.2,185.4,594.5,185.4z M588.8,204.3
					c2.8-3.8,2.4-9.4,2.4-16.1c-9.4,0-19.4,0-28.8,0c0,0,0,0,0,0.5c0,6.6-0.5,12.3,2.4,15.6c2.4,3.8,6.6,5.7,12.3,5.7
					C582.2,210.4,586.5,208,588.8,204.3z"/>
				<path fill="#FFFFFF" d="M594,149.5c0,6.1,0,12.3,0,18.4c-0.9,0-2.4,0-3.3,0c0-5.2,0-9.9,0-15.1c-4.3,0-8.5,0-12.8,0
					c0,4.7,0,9.9,0,15.1c-0.9,0-2.4,0-3.3,0c0-5.2,0-9.9,0-15.1c-4.3,0-8.5,0-12.8,0c0,5.2,0,9.9,0,15.1c-0.9,0-2.4,0-3.3,0
					c0-6.1,0-12.3,0-18.4C569.9,149.5,582.2,149.5,594,149.5z"/>
				<path fill="#FFFFFF" d="M593.6,381.9c0.9,6.1,1.4,12.3,1.9,18.4c-1.4,0-2.4,0.5-3.3,0.5c-0.5-5.2-0.9-9.9-1.4-15.1
					c-4.3,0.5-8.5,0.9-12.8,1.4c0.5,4.7,0.9,9.9,1.4,15.1c-0.9,0-2.4,0.5-3.3,0.5c-0.5-4.7-0.9-9.9-1.4-15.1
					c-4.3,0.5-8.5,0.9-12.8,1.4c0.5,5.2,0.9,9.9,1.4,15.1c-0.9,0-2.4,0.5-3.3,0.5c-0.5-6.1-1.4-12.3-1.9-18.4
					C569.5,384.3,581.7,383.3,593.6,381.9z"/>
				<path fill="#FFFFFF" d="M594,248.7c0,0.9,0,2.4,0,3.3c-6.6,0-13.7,0-20.3,0c-7.1,0-12.8-0.9-15.1-5.2
					c-1.9-3.8-1.4-10.4,0.9-13.2c1.9-2.8,5.7-4.3,10.4-4.3c8-0.5,16.1,0.5,24.6,0c0,0.9,0,2.4,0,3.8c-5.7,0-12.8,0-19.4,0
					c-3.3,0-6.6-0.5-9,0.5c-3.8,1.4-7.1,6.1-4.3,10.9c2.4,4.7,9.4,4.3,16.5,4.3C583.2,248.7,588.8,248.7,594,248.7z"/>
				<path fill="#FFFFFF" d="M589.8,28c0,8,0,16.1,0,24.1c-1.4,0-2.8,0-4.3,0c-1.4-6.6-3.3-13.7-4.7-20.3c0,6.6,0,13.7,0,20.3
					c-0.9,0-1.4,0-2.4,0c0-8,0-15.6,0-23.6c0,0,0,0,0-0.5c1.4,0,2.8,0,4.3,0c1.4,7.1,3.3,13.7,4.7,20.3c0-6.6,0-13.7,0-20.3
					C587.9,28,588.8,28,589.8,28z"/>
				<path fill="#FFFFFF" d="M574.7,28c-0.5,5.7,0.5,13.2,0,18.9c0,2.4-1.4,4.3-3.3,4.7c-2.4,0.9-5.7,0-6.6-1.9
					c-1.4-2.4-0.9-6.6-0.9-10.4c0-4.3,0-8,0-11.3c0,0,0,0,0-0.5c0.9,0,1.9,0,2.4,0c0,5.2,0,11.3,0,17.5c0,2.4,0.9,5.2,3.8,4.3
					c2.4-0.9,1.9-6.6,1.9-9.9c0-4.3,0-7.6,0-11.3C573.2,28,573.7,28,574.7,28z"/>
			</g>
		</g>
	</g>
</g>
</svg>
